<svg width="118" height="119" viewBox="0 0 118 119" xmlns="http://www.w3.org/2000/svg">
  <defs>
    <linearGradient id="dialGradient" x1="0%" y1="0%" x2="100%" y2="100%">
      <stop offset="0%" style="stop-color: #f0f0f0; stop-opacity: 1" />
      <stop offset="100%" style="stop-color: #d0d0d0; stop-opacity: 1" />
    </linearGradient>
    <filter id="dropShadow" x="-20%" y="-20%" width="140%" height="140%">
      <feGaussianBlur in="SourceAlpha" stdDeviation="2" />
      <feOffset dx="1" dy="1" result="offsetblur" />
      <feFlood flood-color="#888" flood-opacity="0.2" />
      <feComposite in2="offsetblur" operator="in" />
      <feMerge>
        <feMergeNode />
        <feMergeNode in="SourceGraphic" />
      </feMerge>
    </filter>
  </defs>
  
  <!-- Compass body -->
  <circle cx="59" cy="59.5" r="54.5" fill="url(#dialGradient)" stroke="#6e6e6e" stroke-opacity="0.7" stroke-width="3" filter="url(#dropShadow)" />
  
  <!-- Cardinal directions -->
  <path d="M59 0.5L64.196 10H53.8037L59 0.5Z" fill="#D9D9D9" stroke="#6C6C6C" stroke-width="1" />
  <rect x="58" y="109.5" width="2" height="9" fill="#6C6C6C" />
  <rect x="118" y="58.5" width="2" height="9" transform="rotate(90 118 58.5)" fill="#6C6C6C" />
  <rect x="9" y="58.5" width="2" height="9" transform="rotate(90 9 58.5)" fill="#6C6C6C" />
  
  <!-- Intermediate directions -->
  <rect x="101.426" y="100.512" width="2" height="9" transform="rotate(135 101.426 100.512)" fill="#6C6C6C" />
  <rect x="24.3516" y="23.4375" width="2" height="9" transform="rotate(135 24.3516 23.4375)" fill="#6C6C6C" />
  <rect x="17.9878" y="101.926" width="2" height="9" transform="rotate(-135 17.9878 101.926)" fill="#6C6C6C" />
  <rect x="95.0625" y="24.8516" width="2" height="9" transform="rotate(-135 95.0625 24.8516)" fill="#6C6C6C" />
  
  <!-- Cardinal direction labels -->
  <text x="17.5" y="65"  fill="#6C6C6C">W</text>
  <text x="54" y="25"  fill="#6C6C6C">N</text>
  <text x="54" y="106"  fill="#6C6C6C">S</text>
  <text x="96" y="65"  fill="#6C6C6C">E</text>
</svg>