<svg data-name="Layer 1" id="Layer_1" viewBox="0 0 256 256" xmlns="http://www.w3.org/2000/svg"><defs><style>.cls-1{fill:none;stroke:#95cdd1;stroke-linecap:round;stroke-linejoin:round;stroke-width:6px;}</style></defs><title/><path class="cls-1" d="M89.25,177.37a10.25,10.25,0,1,1-20.51,0C68.74,171.71,79,154.1,79,154.1S89.25,171.71,89.25,177.37Z"/><path class="cls-1" d="M120.2,168.11a10.25,10.25,0,1,1-20.51,0c0-5.66,10.25-23.27,10.25-23.27S120.2,162.45,120.2,168.11Z"/><path class="cls-1" d="M109,214.13a9.33,9.33,0,0,1-18.67,0c0-5.15,9.33-21.18,9.33-21.18S109,209,109,214.13Z"/><path class="cls-1" d="M152.35,183.67a8.36,8.36,0,0,1-16.71,0c0-4.62,8.36-19,8.36-19S152.35,179.06,152.35,183.67Z"/><path class="cls-1" d="M187.26,175.18a10.25,10.25,0,1,1-20.51,0c0-5.66,10.25-23.27,10.25-23.27S187.26,169.52,187.26,175.18Z"/><path class="cls-1" d="M173.9,224.22a10.25,10.25,0,1,1-20.51,0c0-5.66,10.25-23.27,10.25-23.27S173.9,218.56,173.9,224.22Z"/><path class="cls-1" d="M139.46,233.39a10.25,10.25,0,1,1-20.51,0c0-5.66,10.25-23.27,10.25-23.27S139.46,227.72,139.46,233.39Z"/><path class="cls-1" d="M74.55,135a37.58,37.58,0,0,1,0-75.16h0A48.4,48.4,0,0,1,170.36,51"/><path class="cls-1" d="M74.55,135h128.7A15.77,15.77,0,0,0,219,119.2h0a15.77,15.77,0,0,0-15.77-15.77h-.16a33.77,33.77,0,0,0-48.34-45.72"/><path class="cls-1" d="M146.54,67.24l-.25.34"/></svg>